<svg width="21" height="17" viewBox="0 0 21 17" fill="none" xmlns="http://www.w3.org/2000/svg">
<path d="M0 14.0581C0 10.2275 0 6.39804 0 2.56858C0.0106852 2.54313 0.024576 2.51768 0.0309871 2.49112C0.322694 1.08038 1.23735 0.3125 2.62856 0.3125C7.90493 0.3125 13.1824 0.3125 18.4587 0.3125C19.9279 0.3125 20.9975 1.42007 20.9986 2.94035C21.0007 6.52197 21.0007 10.1025 20.9965 13.6841C20.9965 13.8954 20.9804 14.1112 20.9345 14.3159C20.6652 15.5264 19.6897 16.3108 18.4577 16.3119C13.1941 16.3131 7.93164 16.3119 2.6681 16.3119C2.57193 16.3119 2.47683 16.3142 2.38067 16.3097C1.60492 16.2699 0.978766 15.9313 0.497931 15.2973C0.222253 14.9322 0.0929614 14.504 0 14.0581ZM19.3595 3.39953C19.2644 3.46813 19.1981 3.51239 19.1351 3.56107C16.3334 5.7231 13.5307 7.88402 10.7344 10.0527C10.5591 10.1888 10.4501 10.1965 10.2706 10.0571C7.46897 7.88402 4.66089 5.71868 1.85389 3.55222C1.79298 3.50464 1.7278 3.46149 1.64125 3.39953V3.65512C1.64125 6.97451 1.64125 10.2939 1.64125 13.6122C1.64125 14.2871 1.95646 14.6102 2.61254 14.6102C7.86967 14.6102 13.1257 14.6102 18.3829 14.6102C19.0496 14.6102 19.3595 14.2882 19.3595 13.5956C19.3595 10.2839 19.3595 6.97119 19.3595 3.65955V3.39842V3.39953ZM10.5004 8.1031C13.1193 6.08159 15.7297 4.06783 18.3764 2.0253H2.62429C5.27316 4.06894 7.88249 6.08381 10.5004 8.1031Z" fill="#FCA640"/>
</svg>
