<svg width="24" height="25" viewBox="0 0 24 25" fill="none" xmlns="http://www.w3.org/2000/svg">
<path d="M17.34 5.7725C17.1027 5.7725 16.8707 5.84288 16.6733 5.97474C16.476 6.10659 16.3222 6.29401 16.2313 6.51328C16.1405 6.73255 16.1168 6.97383 16.1631 7.20661C16.2094 7.43939 16.3236 7.65321 16.4915 7.82103C16.6593 7.98885 16.8731 8.10314 17.1059 8.14944C17.3387 8.19574 17.5799 8.17198 17.7992 8.08116C18.0185 7.99033 18.2059 7.83652 18.3378 7.63918C18.4696 7.44185 18.54 7.20984 18.54 6.9725C18.54 6.65424 18.4136 6.34902 18.1885 6.12397C17.9635 5.89893 17.6583 5.7725 17.34 5.7725ZM21.94 8.1925C21.9206 7.3628 21.7652 6.5419 21.48 5.7625C21.2257 5.09563 20.83 4.49178 20.32 3.9925C19.8248 3.47993 19.2196 3.08668 18.55 2.8425C17.7727 2.54866 16.9508 2.38971 16.12 2.3725C15.06 2.3125 14.72 2.3125 12 2.3125C9.28 2.3125 8.94 2.3125 7.88 2.3725C7.04915 2.38971 6.22734 2.54866 5.45 2.8425C4.78168 3.08915 4.17693 3.48206 3.68 3.9925C3.16743 4.48768 2.77418 5.09294 2.53 5.7625C2.23616 6.53984 2.07721 7.36165 2.06 8.1925C2 9.2525 2 9.5925 2 12.3125C2 15.0325 2 15.3725 2.06 16.4325C2.07721 17.2633 2.23616 18.0852 2.53 18.8625C2.77418 19.5321 3.16743 20.1373 3.68 20.6325C4.17693 21.1429 4.78168 21.5359 5.45 21.7825C6.22734 22.0763 7.04915 22.2353 7.88 22.2525C8.94 22.3125 9.28 22.3125 12 22.3125C14.72 22.3125 15.06 22.3125 16.12 22.2525C16.9508 22.2353 17.7727 22.0763 18.55 21.7825C19.2196 21.5383 19.8248 21.1451 20.32 20.6325C20.8322 20.1351 21.2283 19.5307 21.48 18.8625C21.7652 18.0831 21.9206 17.2622 21.94 16.4325C21.94 15.3725 22 15.0325 22 12.3125C22 9.5925 22 9.2525 21.94 8.1925ZM20.14 16.3125C20.1327 16.9473 20.0178 17.5762 19.8 18.1725C19.6403 18.6077 19.3839 19.0009 19.05 19.3225C18.7256 19.653 18.3332 19.9089 17.9 20.0725C17.3037 20.2903 16.6748 20.4052 16.04 20.4125C15.04 20.4625 14.67 20.4725 12.04 20.4725C9.41 20.4725 9.04 20.4725 8.04 20.4125C7.38089 20.4248 6.72459 20.3234 6.1 20.1125C5.68578 19.9406 5.31136 19.6853 5 19.3625C4.66809 19.0412 4.41484 18.6477 4.26 18.2125C4.01586 17.6077 3.88044 16.9644 3.86 16.3125C3.86 15.3125 3.8 14.9425 3.8 12.3125C3.8 9.6825 3.8 9.3125 3.86 8.3125C3.86448 7.66356 3.98295 7.02045 4.21 6.4125C4.38605 5.99041 4.65627 5.61416 5 5.3125C5.30381 4.96867 5.67929 4.6956 6.1 4.5125C6.70955 4.29254 7.352 4.17758 8 4.1725C9 4.1725 9.37 4.1125 12 4.1125C14.63 4.1125 15 4.1125 16 4.1725C16.6348 4.17978 17.2637 4.29475 17.86 4.5125C18.3144 4.68115 18.7223 4.95535 19.05 5.3125C19.3777 5.61968 19.6338 5.99523 19.8 6.4125C20.0223 7.02143 20.1373 7.66428 20.14 8.3125C20.19 9.3125 20.2 9.6825 20.2 12.3125C20.2 14.9425 20.19 15.3125 20.14 16.3125ZM12 7.1825C10.9858 7.18448 9.99496 7.48703 9.15265 8.05192C8.31035 8.61681 7.65438 9.4187 7.26763 10.3563C6.88089 11.2938 6.78072 12.325 6.97979 13.3194C7.17886 14.3139 7.66824 15.227 8.38608 15.9435C9.10392 16.6599 10.018 17.1475 11.0129 17.3446C12.0077 17.5418 13.0387 17.4396 13.9755 17.051C14.9123 16.6625 15.7129 16.0049 16.2761 15.1615C16.8394 14.3181 17.14 13.3267 17.14 12.3125C17.1413 11.6376 17.0092 10.9691 16.7512 10.3455C16.4933 9.72181 16.1146 9.15531 15.6369 8.67855C15.1592 8.20179 14.5919 7.82418 13.9678 7.56743C13.3436 7.31068 12.6749 7.17986 12 7.1825ZM12 15.6425C11.3414 15.6425 10.6976 15.4472 10.15 15.0813C9.60234 14.7154 9.17552 14.1953 8.92348 13.5868C8.67144 12.9784 8.6055 12.3088 8.73398 11.6628C8.86247 11.0169 9.17963 10.4235 9.64533 9.95783C10.111 9.49213 10.7044 9.17497 11.3503 9.04648C11.9963 8.918 12.6659 8.98394 13.2743 9.23598C13.8828 9.48802 14.4029 9.91484 14.7688 10.4625C15.1347 11.0101 15.33 11.6539 15.33 12.3125C15.33 12.7498 15.2439 13.1828 15.0765 13.5868C14.9092 13.9909 14.6639 14.3579 14.3547 14.6672C14.0454 14.9764 13.6784 15.2217 13.2743 15.389C12.8703 15.5564 12.4373 15.6425 12 15.6425Z" fill="#8D8D8D"/>
</svg>
