<svg width="24" height="25" viewBox="0 0 24 25" fill="none" xmlns="http://www.w3.org/2000/svg">
<path d="M20.4686 2.31264H3.52859C3.33817 2.31 3.14909 2.34489 2.97216 2.41532C2.79522 2.48576 2.6339 2.59036 2.49739 2.72315C2.36089 2.85594 2.25188 3.01432 2.17659 3.18925C2.1013 3.36417 2.0612 3.55222 2.05859 3.74264V20.8826C2.0612 21.0731 2.1013 21.2611 2.17659 21.436C2.25188 21.611 2.36089 21.7693 2.49739 21.9021C2.6339 22.0349 2.79522 22.1395 2.97216 22.21C3.14909 22.2804 3.33817 22.3153 3.52859 22.3126H20.4686C20.659 22.3153 20.8481 22.2804 21.025 22.21C21.202 22.1395 21.3633 22.0349 21.4998 21.9021C21.6363 21.7693 21.7453 21.611 21.8206 21.436C21.8959 21.2611 21.936 21.0731 21.9386 20.8826V3.74264C21.936 3.55222 21.8959 3.36417 21.8206 3.18925C21.7453 3.01432 21.6363 2.85594 21.4998 2.72315C21.3633 2.59036 21.202 2.48576 21.025 2.41532C20.8481 2.34489 20.659 2.31 20.4686 2.31264ZM8.08859 19.0526H5.08859V10.0526H8.08859V19.0526ZM6.58859 8.79264C6.17486 8.79264 5.77806 8.62828 5.48551 8.33573C5.19295 8.04317 5.02859 7.64638 5.02859 7.23264C5.02859 6.8189 5.19295 6.42211 5.48551 6.12955C5.77806 5.837 6.17486 5.67264 6.58859 5.67264C6.80829 5.64772 7.03077 5.66949 7.24147 5.73652C7.45217 5.80355 7.64633 5.91433 7.81125 6.0616C7.97617 6.20887 8.10812 6.38932 8.19846 6.59112C8.28881 6.79293 8.33551 7.01154 8.33551 7.23264C8.33551 7.45374 8.28881 7.67235 8.19846 7.87416C8.10812 8.07596 7.97617 8.25641 7.81125 8.40368C7.64633 8.55095 7.45217 8.66173 7.24147 8.72876C7.03077 8.79579 6.80829 8.81755 6.58859 8.79264ZM18.9086 19.0526H15.9086V14.2226C15.9086 13.0126 15.4786 12.2226 14.3886 12.2226C14.0513 12.2251 13.7228 12.3309 13.4474 12.5258C13.1721 12.7207 12.9631 12.9953 12.8486 13.3126C12.7703 13.5477 12.7364 13.7952 12.7486 14.0426V19.0426H9.74859C9.74859 19.0426 9.74859 10.8626 9.74859 10.0426H12.7486V11.3126C13.0211 10.8397 13.4175 10.4502 13.895 10.1858C14.3726 9.92152 14.9132 9.79249 15.4586 9.81264C17.4586 9.81264 18.9086 11.1026 18.9086 13.8726V19.0526Z" fill="#8D8D8D"/>
</svg>
