<svg width="20" height="21" viewBox="0 0 20 21" fill="none" xmlns="http://www.w3.org/2000/svg">
<g clip-path="url(#clip0_1900_4967)">
<path d="M13.7862 11.562C13.3802 11.3179 12.8492 11.048 12.3703 11.2453C12.0007 11.3958 11.7664 11.9722 11.527 12.2629C11.4021 12.4135 11.2563 12.4394 11.0689 12.3616C9.6842 11.8112 8.62746 10.8922 7.86223 9.62013C7.73209 9.42283 7.75812 9.26706 7.91429 9.08534C8.14333 8.81535 8.43485 8.50901 8.49732 8.14037C8.55978 7.77693 8.388 7.35117 8.23703 7.02407C8.04443 6.6087 7.82579 6.0168 7.40934 5.78316C7.02412 5.56509 6.51918 5.6897 6.18081 5.96488C5.59258 6.44256 5.30627 7.19541 5.31668 7.93788C5.31668 8.15076 5.34271 8.35844 5.39476 8.56613C5.51449 9.05418 5.73834 9.51628 5.99862 9.94723C6.19122 10.2743 6.39945 10.5962 6.6285 10.9026C7.3677 11.9047 8.28909 12.7769 9.35624 13.4259C9.88722 13.753 10.4598 14.0386 11.0585 14.2307C11.7248 14.4488 12.3182 14.6772 13.0366 14.5422C13.7914 14.4021 14.5306 13.9348 14.8326 13.2131C14.9211 13.0002 14.9679 12.7614 14.9158 12.5329C14.8117 12.0656 14.1766 11.7852 13.7966 11.562H13.7862Z" fill="#FCA640"/>
<path d="M10.0976 0.3125C4.63691 0.3125 0.196514 4.74137 0.196514 10.1879C0.196514 11.8546 0.623375 13.4953 1.44066 14.9594L0.00390625 20.3073L5.39693 18.8691C6.84409 19.6531 8.46304 20.0685 10.1028 20.0685C15.5635 20.0685 20.0039 15.6396 20.0039 10.1931C20.0039 4.74656 15.5583 0.3125 10.0976 0.3125ZM10.0976 18.1993C8.66086 18.1993 7.24493 17.8099 5.99558 17.0674L5.65721 16.8649L2.64836 17.6697L3.45003 14.6843L3.2418 14.3416C2.47137 13.0851 2.06533 11.6469 2.06533 10.1879C2.06533 5.76941 5.66762 2.17647 10.0976 2.17647C14.5276 2.17647 18.1299 5.76941 18.1299 10.1879C18.1299 14.6064 14.5276 18.1993 10.0976 18.1993Z" fill="#FCA640"/>
</g>
<defs>
<clipPath id="clip0_1900_4967">
<rect width="20" height="20" fill="white" transform="translate(0 0.3125)"/>
</clipPath>
</defs>
</svg>
