<svg width="25" height="25" viewBox="0 0 25 25" fill="none" xmlns="http://www.w3.org/2000/svg">
<path d="M10.7734 20.3297V4.52969C10.7734 3.02969 10.1334 2.42969 8.54344 2.42969H4.50344C2.91344 2.42969 2.27344 3.02969 2.27344 4.52969V20.3297C2.27344 21.8297 2.91344 22.4297 4.50344 22.4297H8.54344C10.1334 22.4297 10.7734 21.8297 10.7734 20.3297Z" stroke="#1A1A1A" stroke-width="2" stroke-linecap="round" stroke-linejoin="round"/>
<path d="M22.2734 8.94969V4.40969C22.2734 2.99969 21.6334 2.42969 20.0434 2.42969H16.0034C14.4134 2.42969 13.7734 2.99969 13.7734 4.40969V8.93969C13.7734 10.3597 14.4134 10.9197 16.0034 10.9197H20.0434C21.6334 10.9297 22.2734 10.3597 22.2734 8.94969Z" stroke="#1A1A1A" stroke-width="2" stroke-linecap="round" stroke-linejoin="round"/>
<path d="M22.2734 20.1997V16.1597C22.2734 14.5697 21.6334 13.9297 20.0434 13.9297H16.0034C14.4134 13.9297 13.7734 14.5697 13.7734 16.1597V20.1997C13.7734 21.7897 14.4134 22.4297 16.0034 22.4297H20.0434C21.6334 22.4297 22.2734 21.7897 22.2734 20.1997Z" stroke="#1A1A1A" stroke-width="2" stroke-linecap="round" stroke-linejoin="round"/>
</svg>
