<svg width="24" height="25" viewBox="0 0 24 25" fill="none" xmlns="http://www.w3.org/2000/svg">
<path d="M17.657 16.7075L13.414 20.9505C13.2284 21.1362 13.0081 21.2836 12.7656 21.3841C12.523 21.4846 12.2631 21.5364 12.0005 21.5364C11.738 21.5364 11.478 21.4846 11.2354 21.3841C10.9929 21.2836 10.7726 21.1362 10.587 20.9505L6.343 16.7075C5.22422 15.5887 4.46234 14.1632 4.15369 12.6114C3.84504 11.0595 4.00349 9.451 4.60901 7.98922C5.21452 6.52743 6.2399 5.27803 7.55548 4.399C8.87107 3.51996 10.4178 3.05078 12 3.05078C13.5822 3.05078 15.1289 3.51996 16.4445 4.399C17.7601 5.27803 18.7855 6.52743 19.391 7.98922C19.9965 9.451 20.155 11.0595 19.8463 12.6114C19.5377 14.1632 18.7758 15.5887 17.657 16.7075V16.7075Z" stroke="#1A1A1A" stroke-width="2" stroke-linecap="round" stroke-linejoin="round"/>
<path d="M15 11.0508C15 11.8464 14.6839 12.6095 14.1213 13.1721C13.5587 13.7347 12.7956 14.0508 12 14.0508C11.2044 14.0508 10.4413 13.7347 9.87868 13.1721C9.31607 12.6095 9 11.8464 9 11.0508C9 10.2551 9.31607 9.49207 9.87868 8.92946C10.4413 8.36685 11.2044 8.05078 12 8.05078C12.7956 8.05078 13.5587 8.36685 14.1213 8.92946C14.6839 9.49207 15 10.2551 15 11.0508V11.0508Z" stroke="#1A1A1A" stroke-width="2" stroke-linecap="round" stroke-linejoin="round"/>
</svg>
