<svg width="24" height="24" viewBox="0 0 24 24" fill="none" xmlns="http://www.w3.org/2000/svg">
<path opacity="0.2" d="M21.5 12C21.5 17.2467 17.2467 21.5 12 21.5C6.75329 21.5 2.5 17.2467 2.5 12C2.5 6.75329 6.75329 2.5 12 2.5C17.2467 2.5 21.5 6.75329 21.5 12Z" stroke="#7065F0"/>
<path d="M12 13.75C12.41 13.75 12.75 13.41 12.75 13V8C12.75 7.59 12.41 7.25 12 7.25C11.59 7.25 11.25 7.59 11.25 8V13C11.25 13.41 11.59 13.75 12 13.75Z" fill="#7065F0"/>
<path d="M12.92 15.6209C12.87 15.5009 12.8 15.3909 12.71 15.2909C12.61 15.2009 12.5 15.1309 12.38 15.0809C12.14 14.9809 11.86 14.9809 11.62 15.0809C11.5 15.1309 11.39 15.2009 11.29 15.2909C11.2 15.3909 11.13 15.5009 11.08 15.6209C11.03 15.7409 11 15.8709 11 16.0009C11 16.1309 11.03 16.2609 11.08 16.3809C11.13 16.5109 11.2 16.6109 11.29 16.7109C11.39 16.8009 11.5 16.8709 11.62 16.9209C11.74 16.9709 11.87 17.0009 12 17.0009C12.13 17.0009 12.26 16.9709 12.38 16.9209C12.5 16.8709 12.61 16.8009 12.71 16.7109C12.8 16.6109 12.87 16.5109 12.92 16.3809C12.97 16.2609 13 16.1309 13 16.0009C13 15.8709 12.97 15.7409 12.92 15.6209Z" fill="#7065F0"/>
</svg>
