<svg width="21" height="21" viewBox="0 0 21 21" fill="none" xmlns="http://www.w3.org/2000/svg">
<path d="M15.332 10.3164H4.08203V6.25391C4.08327 5.83989 4.24828 5.44318 4.54104 5.15042C4.8338 4.85766 5.23051 4.69264 5.64453 4.69141H15.0195C15.4336 4.69264 15.8303 4.85766 16.123 5.15042C16.4158 5.44318 16.5808 5.83989 16.582 6.25391V10.3164H15.332Z" stroke="#1A1A1A" stroke-width="2" stroke-linecap="round" stroke-linejoin="round"/>
<path d="M2.20703 17.1914V12.8164C2.20899 12.154 2.47301 11.5192 2.94143 11.0508C3.40984 10.5824 4.04459 10.3184 4.70703 10.3164H15.957C16.6195 10.3184 17.2542 10.5824 17.7226 11.0508C18.1911 11.5192 18.4551 12.154 18.457 12.8164V17.1914" stroke="#1A1A1A" stroke-width="2" stroke-linecap="round" stroke-linejoin="round"/>
<path d="M2.20703 17.1914V16.8789C2.20775 16.6305 2.30676 16.3924 2.48242 16.2168C2.65807 16.0411 2.89611 15.9421 3.14453 15.9414H17.5195C17.7679 15.9421 18.006 16.0411 18.1816 16.2168C18.3573 16.3924 18.4563 16.6305 18.457 16.8789V17.1914" stroke="#1A1A1A" stroke-width="2" stroke-linecap="round" stroke-linejoin="round"/>
</svg>
