<svg width="24" height="25" viewBox="0 0 24 25" fill="none" xmlns="http://www.w3.org/2000/svg">
<path d="M16.5271 14.0084C16.0398 13.7148 15.4027 13.39 14.828 13.6273C14.3844 13.8085 14.1033 14.5019 13.816 14.8517C13.6661 15.0329 13.4912 15.0641 13.2663 14.9704C11.6046 14.3082 10.3366 13.2026 9.41828 11.6721C9.26211 11.4347 9.29335 11.2473 9.48075 11.0287C9.75561 10.7039 10.1054 10.3353 10.1804 9.89179C10.2553 9.45451 10.0492 8.94228 9.86805 8.54873C9.63692 8.04899 9.37456 7.33686 8.87482 7.05576C8.41256 6.7934 7.80661 6.94332 7.40057 7.2744C6.69469 7.8491 6.35112 8.75488 6.36361 9.64816C6.36361 9.90428 6.39486 10.1541 6.45733 10.404C6.601 10.9912 6.86961 11.5472 7.18195 12.0657C7.41308 12.4592 7.66295 12.8465 7.9378 13.2151C8.82484 14.4207 9.93051 15.4701 11.2111 16.251C11.8483 16.6445 12.5354 16.9881 13.2538 17.2192C14.0534 17.4816 14.7655 17.7564 15.6276 17.594C16.5333 17.4254 17.4204 16.8632 17.7827 15.9949C17.8889 15.7387 17.9451 15.4514 17.8826 15.1765C17.7577 14.6143 16.9956 14.277 16.5396 14.0084H16.5271Z" fill="#1A1A1A"/>
<path d="M12.1124 0.472656C5.5596 0.472656 0.231127 5.80113 0.231127 12.354C0.231127 14.3592 0.74335 16.3332 1.72409 18.0947L0 24.5289L6.47162 22.7985C8.20822 23.7418 10.151 24.2415 12.1187 24.2415C18.6715 24.2415 24 18.9131 24 12.3602C24 5.80738 18.6715 0.478903 12.1187 0.478903L12.1124 0.472656ZM12.1124 21.9927C10.3883 21.9927 8.68921 21.5242 7.19 20.6309L6.78396 20.3873L3.17334 21.3555L4.13534 17.7637L3.88546 17.3514C2.96094 15.8397 2.47371 14.1093 2.47371 12.354C2.47371 7.03799 6.79645 2.71524 12.1124 2.71524C17.4284 2.71524 21.7512 7.03799 21.7512 12.354C21.7512 17.67 17.4284 21.9927 12.1124 21.9927Z" fill="#1A1A1A"/>
</svg>
